<svg width="32" height="32" viewBox="0 0 32 32" fill="none" xmlns="http://www.w3.org/2000/svg">
<g clip-path="url(#clip0)">
<path d="M0.946216 8.13066C1.78177 7.54666 3.04133 7.65866 3.79155 8.27822L2.93111 7.02755C2.23866 6.04 2.48666 4.97155 3.47511 4.27822C4.46355 3.58755 7.26444 5.44444 7.26444 5.44444C6.56577 4.44711 6.69644 3.18311 7.69377 2.48355C8.69111 1.78666 10.0671 2.02755 10.7658 3.02666L20.028 16.1111L18.8476 27.5556L8.99599 23.9627L0.403105 11.2222C-0.301784 10.2187 -0.0582282 8.83466 0.946216 8.13066Z" fill="#EF9645"/>
<path d="M0.336499 15.4098C0.336499 15.4098 -0.669724 13.9431 0.797832 12.9378C2.26361 11.9324 3.26894 13.3982 3.26894 13.3982L7.9365 20.2053C8.09739 19.9369 8.27339 19.672 8.46983 19.4107L1.99161 9.96444C1.99161 9.96444 0.986277 8.49866 2.45294 7.49333C3.91872 6.488 4.92405 7.95378 4.92405 7.95378L11.0174 16.84C11.2441 16.6551 11.4761 16.4693 11.7152 16.2871L4.65117 5.984C4.65117 5.984 3.64583 4.51822 5.1125 3.51289C6.57828 2.50755 7.58361 3.97333 7.58361 3.97333L14.6476 14.2747C14.9072 14.1156 15.1641 13.9778 15.4218 13.832L8.81917 4.20355C8.81917 4.20355 7.81383 2.73778 9.27961 1.73244C10.7454 0.727109 11.7507 2.19289 11.7507 2.19289L18.7321 12.3742L19.7934 13.9227C15.3952 16.9396 14.9765 22.6151 17.4894 26.28C17.9916 27.0133 18.7249 26.5111 18.7249 26.5111C15.7089 22.112 16.6298 17.1689 21.0289 14.1529L19.7321 7.66222C19.7321 7.66222 19.2476 5.952 20.9569 5.46666C22.6672 4.98222 23.1525 6.69244 23.1525 6.69244L24.6503 11.1404C25.2441 12.904 25.8761 14.6613 26.7125 16.3236C29.0743 21.0169 27.6636 26.8498 23.2103 29.9049C18.3525 33.2356 11.7116 31.9973 8.38005 27.1404L0.336499 15.4098Z" fill="#FFDC5D"/>
<path d="M10.6665 28.4818C7.1109 28.4818 3.51801 24.8889 3.51801 21.3333C3.51801 20.8418 3.15801 20.4444 2.66646 20.4444C2.1749 20.4444 1.74023 20.8418 1.74023 21.3333C1.74023 26.6667 5.33312 30.2596 10.6665 30.2596C11.158 30.2596 11.5553 29.8249 11.5553 29.3333C11.5553 28.8418 11.158 28.4818 10.6665 28.4818Z" fill="#5DADEC"/>
<path d="M6.22222 30.2222C3.55556 30.2222 1.77778 28.4444 1.77778 25.7778C1.77778 25.2862 1.38044 24.8889 0.888889 24.8889C0.397333 24.8889 0 25.2862 0 25.7778C0 29.3333 2.66667 32 6.22222 32C6.71378 32 7.11111 31.6027 7.11111 31.1111C7.11111 30.6196 6.71378 30.2222 6.22222 30.2222ZM21.3333 1.77778C20.8427 1.77778 20.4444 2.176 20.4444 2.66667C20.4444 3.15733 20.8427 3.55556 21.3333 3.55556C24.8889 3.55556 28.4444 6.74578 28.4444 10.6667C28.4444 11.1573 28.8427 11.5556 29.3333 11.5556C29.824 11.5556 30.2222 11.1573 30.2222 10.6667C30.2222 5.76533 26.6667 1.77778 21.3333 1.77778Z" fill="#5DADEC"/>
<path d="M25.7776 0.0373306C25.2869 0.0373306 24.8887 0.39822 24.8887 0.888886C24.8887 1.37955 25.2869 1.81511 25.7776 1.81511C28.4442 1.81511 30.1847 3.79289 30.1847 6.22222C30.1847 6.71289 30.6193 7.11111 31.1109 7.11111C31.6024 7.11111 31.9624 6.71289 31.9624 6.22222C31.9624 2.81155 29.3331 0.0373306 25.7776 0.0373306Z" fill="#5DADEC"/>
</g>
<defs>
<clipPath id="clip0">
<rect width="32" height="32" fill="white"/>
</clipPath>
</defs>
</svg>
